<svg width="321" height="97" viewBox="0 0 321 97" fill="none" xmlns="http://www.w3.org/2000/svg">
<g clip-path="url(#clip0_36_84)">
<path d="M66.2635 36.197C66.2635 37.6251 65.6834 38.9137 64.7473 39.8498C63.8112 40.7823 62.5189 41.3623 61.0945 41.3623H58.8735C57.4455 41.3623 56.1532 41.9423 55.2171 42.8748C54.281 43.8109 53.7046 45.1031 53.7046 46.5312C53.7046 47.9593 53.1282 49.2478 52.1921 50.184C51.256 51.1201 49.9638 51.7001 48.5357 51.7001H21.2007C18.3482 51.7001 16.0317 49.3837 16.0317 46.5312C16.0317 43.6788 13.7189 41.3623 10.8665 41.3623H8.64181C5.78936 41.3623 3.47657 39.0495 3.47657 36.197V15.5251C3.47657 14.097 4.05293 12.8048 4.98906 11.8686C5.92519 10.9362 7.21742 10.3561 8.64181 10.3561H10.8665C12.2909 10.3561 13.5831 9.77611 14.5192 8.84365C15.4554 7.90752 16.0317 6.61896 16.0317 5.1909C16.0317 3.76284 16.6118 2.47061 17.5479 1.53448C18.4804 0.59835 19.7726 0.0219867 21.2007 0.0219867H48.5357C51.3918 0.0219867 53.7046 2.33478 53.7046 5.1909C53.7046 8.04702 56.0174 10.3561 58.8735 10.3561H61.0945C63.947 10.3561 66.2635 12.6689 66.2635 15.5251C66.2635 16.9494 65.6834 18.2417 64.7473 19.1778C63.8112 20.1139 62.5189 20.694 61.0945 20.694H58.8735C56.0174 20.694 53.7046 18.3775 53.7046 15.5251C53.7046 12.6726 51.3918 10.3561 48.5357 10.3561H21.2007C19.7726 10.3561 18.4804 10.9362 17.5479 11.8686C16.6118 12.8048 16.0317 14.097 16.0317 15.5251V36.197C16.0317 39.0495 18.3482 41.3623 21.2007 41.3623H48.5357C49.9638 41.3623 51.256 40.7823 52.1921 39.8498C53.1282 38.9137 53.7046 37.6251 53.7046 36.197C53.7046 34.769 54.281 33.4768 55.2171 32.5406C56.1532 31.6045 57.4455 31.0281 58.8735 31.0281H61.0945C63.947 31.0281 66.2635 33.3409 66.2635 36.197Z" fill="#FF8703"/>
<path d="M106.102 36.197C106.102 37.6251 105.526 38.9137 104.59 39.8498C103.654 40.7823 102.361 41.3623 100.937 41.3623H98.716C97.2879 41.3623 95.9957 41.9423 95.0596 42.8748C94.1234 43.8109 93.5471 45.1031 93.5471 46.5312C93.5471 47.9593 92.9707 49.2478 92.0346 50.184C91.0984 51.1201 89.8062 51.7001 88.3782 51.7001H73.5983C70.7458 51.7001 68.433 49.3837 68.433 46.5312V5.1909C68.433 3.76284 69.0131 2.47061 69.9455 1.53448C70.8817 0.59835 72.1702 0.0219867 73.5983 0.0219867H75.823C78.6754 0.0219867 80.9882 2.33478 80.9882 5.1909V36.197C80.9882 39.0495 83.3047 41.3623 86.1571 41.3623H88.3782C89.8062 41.3623 91.0984 40.7823 92.0346 39.8498C92.9707 38.9137 93.5471 37.6251 93.5471 36.197C93.5471 34.769 94.1234 33.4768 95.0596 32.5406C95.9957 31.6045 97.2879 31.0281 98.716 31.0281H100.937C103.789 31.0281 106.102 33.3409 106.102 36.197Z" fill="#FF8703"/>
<path d="M188.023 15.5251V46.5312C188.023 47.9556 187.443 49.2478 186.51 50.184C185.574 51.1201 184.286 51.7001 182.858 51.7001H180.633C177.781 51.7001 175.468 49.3837 175.468 46.5312V15.5251C175.468 14.097 176.048 12.8048 176.98 11.8686C177.916 10.9362 179.205 10.3561 180.633 10.3561C177.781 10.3561 175.468 8.04335 175.468 5.1909C175.468 3.76284 176.048 2.47061 176.98 1.53448C177.916 0.59835 179.205 0.0219867 180.633 0.0219867H182.858C185.71 0.0219867 188.023 2.33478 188.023 5.1909C188.023 6.61896 187.443 7.90752 186.51 8.84365C185.574 9.77611 184.286 10.3561 182.858 10.3561C185.71 10.3561 188.023 12.6689 188.023 15.5251Z" fill="#FF8703"/>
<path d="M255.204 36.197V46.5312C255.204 47.9556 254.624 49.2478 253.688 50.184C252.752 51.1201 251.46 51.7001 250.035 51.7001H247.814C244.958 51.7001 242.645 49.3837 242.645 46.5312V36.197C242.645 33.3409 240.332 31.0281 237.476 31.0281H235.255C232.403 31.0281 230.086 28.7153 230.086 25.8592C230.086 24.4312 230.666 23.1426 231.603 22.2065C232.539 21.274 233.831 20.694 235.255 20.694H237.476C238.904 20.694 240.197 20.1139 241.133 19.1778C242.069 18.2417 242.645 16.9494 242.645 15.5251C242.645 12.6689 240.332 10.3561 237.476 10.3561H210.141C208.713 10.3561 207.421 10.9362 206.489 11.8686C205.552 12.8048 204.972 14.097 204.972 15.5251C204.972 18.3775 207.289 20.694 210.141 20.694H224.921C227.774 20.694 230.086 23.0068 230.086 25.8592C230.086 27.2873 229.506 28.5795 228.574 29.5156C227.638 30.4518 226.349 31.0281 224.921 31.0281H210.141C208.713 31.0281 207.421 31.6045 206.489 32.5406C205.552 33.4768 204.972 34.769 204.972 36.197V46.5312C204.972 47.9556 204.396 49.2478 203.46 50.184C202.524 51.1201 201.232 51.7001 199.807 51.7001H197.582C194.73 51.7001 192.417 49.3837 192.417 46.5312V5.1909C192.417 3.76284 192.994 2.47061 193.93 1.53448C194.866 0.59835 196.158 0.0219867 197.582 0.0219867H237.476C240.332 0.0219867 242.645 2.33478 242.645 5.1909C242.645 8.04702 244.958 10.3561 247.814 10.3561H250.035C252.888 10.3561 255.204 12.6689 255.204 15.5251C255.204 16.9494 254.624 18.2417 253.688 19.1778C252.752 20.1139 251.46 20.694 250.035 20.694H247.814C246.386 20.694 245.094 21.274 244.158 22.2065C243.222 23.1426 242.645 24.4312 242.645 25.8592C242.645 28.7153 244.958 31.0281 247.814 31.0281H250.035C252.888 31.0281 255.204 33.3409 255.204 36.197Z" fill="#FF8703"/>
<path d="M315.021 10.3561H312.8C309.944 10.3561 307.631 8.04335 307.631 5.1909C307.631 2.33845 305.318 0.0219867 302.462 0.0219867H275.127C273.703 0.0219867 272.411 0.59835 271.474 1.53448C270.538 2.47061 269.958 3.76284 269.958 5.1909C269.958 6.61896 269.378 7.90752 268.446 8.84365C267.51 9.77611 266.221 10.3561 264.793 10.3561H262.568C261.14 10.3561 259.852 10.9362 258.916 11.8686C257.983 12.8048 257.403 14.097 257.403 15.5251V36.197C257.403 39.0495 259.716 41.3623 262.568 41.3623H264.793C267.645 41.3623 269.958 43.6751 269.958 46.5312C269.958 49.3873 272.275 51.7001 275.127 51.7001H302.462C303.89 51.7001 305.182 51.1201 306.119 50.184C307.051 49.2478 307.631 47.9556 307.631 46.5312C307.631 45.1068 308.211 43.8109 309.144 42.8748C310.08 41.9423 311.372 41.3623 312.8 41.3623H315.021C316.449 41.3623 317.741 40.7823 318.674 39.8498C319.61 38.9137 320.19 37.6251 320.19 36.197V15.5251C320.19 12.6689 317.874 10.3561 315.021 10.3561ZM275.127 41.3623C272.275 41.3623 269.958 39.0495 269.958 36.197V15.5251C269.958 14.097 270.538 12.8048 271.474 11.8686C272.411 10.9362 273.703 10.3561 275.127 10.3561H302.462C305.318 10.3561 307.631 12.6689 307.631 15.5251V36.197C307.631 37.6251 307.051 38.9137 306.119 39.8498C305.182 40.7823 303.89 41.3623 302.462 41.3623H275.127Z" fill="#FF8703"/>
<path d="M165.853 20.672H163.742C160.86 20.672 158.522 18.3592 158.522 15.5067C158.522 14.0787 159.106 12.7865 160.053 11.8503C160.996 10.9142 162.303 10.3378 163.746 10.3378H165.857C167.3 10.3378 168.606 9.75779 169.554 8.82533C170.497 7.8892 171.084 6.60064 171.084 5.17258C171.084 2.32013 168.746 0.00733821 165.86 0.00733821H163.75C162.307 0.00733821 161 0.587373 160.056 1.51983C159.113 2.45596 158.526 3.74452 158.526 5.17258C158.526 6.60064 157.942 7.89287 156.995 8.82533C156.048 9.76146 154.741 10.3378 153.298 10.3378H126.073C123.191 10.3378 120.853 8.02503 120.853 5.17258C120.853 2.32013 118.514 0.00733821 115.632 0.00733821H113.522C112.079 0.00733821 110.772 0.587373 109.825 1.51983C108.881 2.45596 108.294 3.74452 108.294 5.17258C108.294 8.02503 110.632 10.3378 113.518 10.3378H115.629C118.511 10.3378 120.849 12.6506 120.849 15.5067C120.849 16.9311 120.265 18.227 119.318 19.1595C118.375 20.0956 117.068 20.672 115.625 20.672H113.514C112.071 20.672 110.765 21.252 109.817 22.1845C108.874 23.1206 108.287 24.4128 108.287 25.8372V46.5129C108.287 49.3653 110.625 51.6781 113.511 51.6781H115.621C117.064 51.6781 118.371 51.0981 119.315 50.1656C120.258 49.2295 120.845 47.9373 120.845 46.5129C120.845 45.0885 121.429 43.7926 122.376 42.8565C123.32 41.9203 124.627 41.344 126.069 41.344H153.294C156.18 41.344 158.518 43.6568 158.518 46.5129C158.518 49.369 160.857 51.6781 163.739 51.6781H165.849C167.292 51.6781 168.599 51.0981 169.546 50.1656C170.49 49.2295 171.077 47.9373 171.077 46.5129V25.8372C171.077 22.9848 168.739 20.672 165.853 20.672ZM156.991 29.4973C156.044 30.4335 154.737 31.0098 153.294 31.0098H126.069C123.188 31.0098 120.849 28.697 120.849 25.8409C120.849 24.4165 121.433 23.1206 122.38 22.1881C123.327 21.2557 124.63 20.6757 126.073 20.6757H153.298C156.183 20.6757 158.522 22.9885 158.522 25.8409C158.522 27.269 157.938 28.5612 156.991 29.4973Z" fill="#FF8703"/>
<path d="M29.9636 59.648H20.3746L4.23061e-06 90.9441H11.1969L14.9818 84.8868H38.1097L41.8946 90.9441H53.1833L32.8087 59.648H29.9636ZM19.0237 78.4147L26.5421 66.3808L34.0605 78.4147H19.02H19.0237Z" fill="white"/>
<path d="M65.5292 74.6774C66.9976 74.3874 68.9396 74.2406 71.3589 74.2406C75.03 74.2406 78.1101 74.3947 80.6064 74.6994C83.0991 75.0042 85.1879 75.3272 86.8693 75.6613L88.6131 68.7302C86.5022 68.2089 84.0462 67.7831 81.2488 67.4453C78.4515 67.1076 75.5807 66.9387 72.6438 66.9387C68.0255 66.9387 64.2443 67.3683 61.3074 68.2236C58.3705 69.079 56.2119 70.4116 54.8389 72.2178C53.4623 74.024 52.7758 76.3478 52.7758 79.1929C52.7758 82.038 53.4659 84.3251 54.8389 86.146C56.2156 87.9668 58.3705 89.3068 61.3074 90.1621C64.2443 91.0175 68.0219 91.447 72.6438 91.447C75.6431 91.447 78.5249 91.2782 81.2929 90.9404C84.0609 90.6027 86.5022 90.1768 88.6131 89.6555L86.8693 82.7245C85.1879 83.0622 83.0991 83.3816 80.6064 83.6863C78.1137 83.991 75.03 84.1452 71.3589 84.1452C68.9433 84.1452 66.9976 84.002 65.5292 83.7083C64.0607 83.4183 63.0108 82.9117 62.3867 82.1958C61.759 81.4763 61.4469 80.4741 61.4469 79.1892C61.4469 77.9043 61.759 76.9021 62.3867 76.1826C63.0145 75.463 64.0607 74.9601 65.5292 74.6701V74.6774Z" fill="white"/>
<path d="M119.425 67.5666C116.077 67.2436 112.38 67.0857 108.342 67.0857C104.825 67.0857 101.734 67.4675 99.0721 68.2311C96.4105 68.9947 94.3364 70.2722 92.8532 72.0637C91.3701 73.8552 90.6285 76.3259 90.6285 79.4757C90.6285 82.3502 91.2012 84.6703 92.3503 86.4288C93.4957 88.1872 95.1183 89.4574 97.2145 90.2394C99.3107 91.0176 101.734 91.4104 104.487 91.4104C106.811 91.4104 109.076 91.1718 111.279 90.6982C113.481 90.2247 115.585 89.6116 117.589 88.8627C118.459 88.5396 119.296 88.1982 120.111 87.8495L120.732 90.9479H128.349V68.6459H128.323L128.349 68.6019C125.75 68.2348 122.773 67.8897 119.425 67.5703V67.5666ZM112.773 83.6057C110.43 84.0352 108.235 84.2481 106.187 84.2481C103.679 84.2481 101.903 83.8663 100.864 83.1027C99.8247 82.3391 99.3034 81.0212 99.3034 79.1563C99.3034 77.9338 99.6081 76.9536 100.221 76.2194C100.834 75.4852 101.741 74.9419 102.952 74.5894C104.16 74.237 105.665 74.0608 107.472 74.0608C109.37 74.0608 111.37 74.1232 113.485 74.2444C115.596 74.3655 117.63 74.5124 119.586 74.6812C119.616 74.6812 119.649 74.6849 119.678 74.6886V81.9353C117.288 82.6402 114.983 83.2019 112.773 83.6057Z" fill="white"/>
<path d="M161.117 68.2457C160.174 68.0805 159.186 67.9153 158.159 67.7502C155.42 67.3059 152.413 67.0857 149.142 67.0857C145.871 67.0857 142.762 67.4748 140.192 68.2568C137.622 69.0387 135.625 70.3309 134.205 72.1334C132.78 73.9396 132.072 76.3846 132.072 79.4757C132.072 82.5667 132.652 84.762 133.815 86.5205C134.979 88.279 136.639 89.5345 138.793 90.2834C140.948 91.0323 143.544 91.4067 146.573 91.4067C148.838 91.4067 151.029 91.1534 153.158 90.6505C155.284 90.1439 157.325 89.4978 159.286 88.7011C160.071 88.3818 160.827 88.055 161.569 87.721L162.178 90.9515H169.796V56.5349H161.125V68.2531L161.117 68.2457ZM154.487 83.6277C152.178 84.0388 149.998 84.2481 147.949 84.2481C145.35 84.2481 143.5 83.8736 142.398 83.1247C141.297 82.3758 140.746 81.113 140.746 79.3398C140.746 78.0549 141.036 77.0307 141.62 76.2634C142.2 75.4999 143.074 74.9418 144.234 74.5894C145.398 74.237 146.848 74.0608 148.595 74.0608C150.431 74.0608 152.38 74.1305 154.447 74.2664C156.514 74.4022 158.507 74.5711 160.435 74.773C160.67 74.7987 160.897 74.8207 161.125 74.8464V82.0491C158.838 82.7172 156.624 83.2459 154.495 83.6277H154.487Z" fill="white"/>
<path d="M205.765 69.3323C204.143 68.5063 202.201 67.9042 199.936 67.5188C197.671 67.137 195.149 66.9461 192.366 66.9461C188.357 66.9461 184.98 67.3682 182.226 68.2089C179.473 69.0496 177.384 70.3749 175.963 72.1774C174.539 73.9836 173.83 76.3367 173.83 79.2443C173.83 82.1518 174.495 84.4682 175.828 86.2891C177.156 88.11 179.231 89.4499 182.046 90.3053C184.862 91.1607 188.485 91.5902 192.92 91.5902C194.91 91.5902 196.966 91.5131 199.091 91.3626C201.217 91.2084 203.251 90.9955 205.193 90.7201C207.135 90.4448 208.823 90.1401 210.262 89.8024L208.519 83.5615C207.601 83.6826 206.43 83.8442 205.009 84.0424C203.585 84.2406 201.925 84.4095 200.031 84.549C198.133 84.6885 196.022 84.7546 193.698 84.7546C191.375 84.7546 189.462 84.6775 187.964 84.527C186.466 84.3728 185.288 84.0901 184.433 83.679C183.577 83.2678 182.979 82.6694 182.641 81.8875C182.553 81.6819 182.476 81.4579 182.41 81.223H210.586C210.615 81.0101 210.648 80.6797 210.677 80.2355C210.707 79.7913 210.74 79.3103 210.769 78.789C210.798 78.2677 210.813 77.8272 210.813 77.4601C210.813 75.5621 210.376 73.9432 209.506 72.5959C208.633 71.2486 207.388 70.1656 205.765 69.3359V69.3323ZM186.011 73.3007C187.465 72.9189 189.477 72.728 192.046 72.728C194.954 72.728 197.142 72.9189 198.61 73.3007C200.079 73.6825 201.074 74.2883 201.591 75.1143C201.881 75.5732 202.087 76.1091 202.215 76.7222H182.366C182.505 76.1422 182.711 75.6356 182.983 75.2097C183.548 74.3213 184.557 73.6899 186.011 73.3044V73.3007Z" fill="white"/>
<path d="M269.253 68.0694C267.374 67.3205 265.068 66.9461 262.348 66.9461C260.3 66.9461 258.281 67.159 256.291 67.5885C254.301 68.018 252.392 68.5834 250.557 69.2846C249.378 69.7361 248.251 70.2097 247.161 70.6979C246.232 69.5489 245.02 68.6678 243.515 68.0694C241.636 67.3205 239.316 66.9461 236.562 66.9461C234.573 66.9461 232.601 67.159 230.644 67.5885C228.688 68.018 226.812 68.5907 225.024 69.3103C224.323 69.5929 223.64 69.8829 222.964 70.1766L222.476 67.5885H214.859V90.9441H223.53V76.0981C225.325 75.5475 227.014 75.0922 228.578 74.7472C230.384 74.3507 232.109 74.1524 233.761 74.1524C235.292 74.1524 236.559 74.3433 237.572 74.7251C238.581 75.1069 239.338 75.687 239.844 76.4689C240.351 77.2508 240.6 78.2347 240.6 79.4278V90.9477H249.272V77.9594C249.272 77.2765 249.239 76.6268 249.173 76.0137C250.957 75.4814 252.642 75.0482 254.206 74.7251C256.056 74.3433 257.822 74.1524 259.507 74.1524C261.038 74.1524 262.304 74.3433 263.317 74.7251C264.327 75.1069 265.083 75.687 265.59 76.4689C266.096 77.2508 266.346 78.2347 266.346 79.4278V90.9477H275.017V77.9594C275.017 75.3272 274.529 73.209 273.549 71.6047C272.568 69.9967 271.14 68.822 269.257 68.0731L269.253 68.0694Z" fill="white"/>
<path d="M308.233 67.5408V79.9858C306.152 80.3676 304.122 80.665 302.154 80.8706C299.966 81.0982 297.862 81.2156 295.843 81.2156C293.703 81.2156 292.025 81.0394 290.817 80.687C289.61 80.3346 288.754 79.7692 288.248 78.991C287.741 78.2127 287.491 77.1958 287.491 75.9403V67.5408H278.864V77.2692C278.864 79.839 279.353 81.9425 280.333 83.5798C281.313 85.2172 282.888 86.4176 285.061 87.1812C287.235 87.9448 290.138 88.3266 293.78 88.3266C295.953 88.3266 298.116 88.1651 300.274 87.8457C302.433 87.5263 304.489 87.0894 306.445 86.5387C307.169 86.3332 307.866 86.1239 308.545 85.9147L308.648 86.1716C308.769 87.886 308.516 89.2554 307.892 90.2796C307.264 91.3038 306.177 92.0454 304.632 92.5043C303.086 92.9632 300.997 93.1945 298.369 93.1945C295.74 93.1945 292.899 93.0182 290.223 92.6658C287.547 92.3134 284.845 91.7994 282.124 91.1276L280.612 97.7356C282.172 98.1651 283.901 98.5396 285.795 98.859C287.693 99.182 289.672 99.4317 291.739 99.6152C293.806 99.7988 295.814 99.8906 297.774 99.8906C302.18 99.8906 305.788 99.4537 308.604 98.5836C311.42 97.7099 313.505 96.2415 314.867 94.1783C316.229 92.1152 316.908 89.3068 316.908 85.7568V67.5408H308.237H308.233Z" fill="white"/>
</g>
<defs>
<clipPath id="clip0_36_84">
<rect width="320.19" height="96.785" fill="white"/>
</clipPath>
</defs>
</svg>
