<?xml version="1.0" encoding="UTF-8"?>
<svg id="Capa_2" data-name="Capa 2" xmlns="http://www.w3.org/2000/svg" viewBox="0 0 171.02 140.77">
  <defs>
    <style>
      .cls-1 {
        fill: #ff9d00;
        stroke-width: 0px;
      }
    </style>
  </defs>
  <g id="Capa_1-2" data-name="Capa 1">
    <path class="cls-1" d="m150.14,28.16h7.56c7.36,0,13.32-5.97,13.32-13.33v-1.5c0-7.36-5.96-13.33-13.32-13.33h-7.56c-7.36,0-13.32,5.97-13.32,13.33v1.5c0,7.36-5.97,13.33-13.33,13.33H47.53c-7.36,0-13.33-5.97-13.33-13.33v-1.5c0-7.36-5.96-13.33-13.32-13.33h-7.56C5.96,0,0,5.97,0,13.33v1.5c0,7.36,5.96,13.33,13.32,13.33h7.56c7.36,0,13.32,5.96,13.32,13.32v1.5c0,7.36-5.96,13.33-13.32,13.33h-7.56c-7.36,0-13.32,5.97-13.32,13.33v57.81c0,7.36,5.96,13.32,13.32,13.32h7.56c7.36,0,13.32-5.96,13.32-13.32v-1.51c0-7.36,5.97-13.32,13.33-13.32h75.96c7.36,0,13.33,5.96,13.33,13.32v1.51c0,7.36,5.96,13.32,13.32,13.32h7.56c7.36,0,13.32-5.96,13.32-13.32v-57.81c0-7.36-5.96-13.33-13.32-13.33h-7.56c-7.36,0-13.32-5.97-13.32-13.33v-1.5c0-7.36,5.96-13.32,13.32-13.32Zm-13.32,42.98c0,7.36-5.97,13.32-13.33,13.32H47.53c-7.36,0-13.33-5.96-13.33-13.32v-1.5c0-7.36,5.97-13.33,13.33-13.33h75.96c7.36,0,13.33,5.97,13.33,13.33v1.5Z"/>
  </g>
</svg>