<?xml version="1.0" encoding="UTF-8"?>
<svg id="Capa_2" data-name="Capa 2" xmlns="http://www.w3.org/2000/svg" viewBox="0 0 862.85 140.77">
  <defs>
    <style>
      .cls-1 {
        fill: #ff9d00;
        stroke-width: 0px;
      }
    </style>
  </defs>
  <g id="Capa_1-2" data-name="Capa 1">
    <path class="cls-1" d="m435.77,28.16h7.56c7.36,0,13.32-5.97,13.32-13.33v-1.5c0-7.36-5.96-13.33-13.32-13.33h-7.56c-7.36,0-13.32,5.97-13.32,13.33v1.5c0,7.36-5.97,13.33-13.33,13.33h-75.96c-7.36,0-13.33-5.97-13.33-13.33v-1.5c0-7.36-5.96-13.33-13.32-13.33h-7.56c-7.36,0-13.32,5.97-13.32,13.33v1.5c0,7.36,5.96,13.33,13.32,13.33h7.56c7.36,0,13.32,5.96,13.32,13.32v1.5c0,7.36-5.96,13.33-13.32,13.33h-7.56c-7.36,0-13.32,5.97-13.32,13.33v57.81c0,7.36,5.96,13.32,13.32,13.32h7.56c7.36,0,13.32-5.96,13.32-13.32v-1.51c0-7.36,5.97-13.32,13.33-13.32h75.96c7.36,0,13.33,5.96,13.33,13.32v1.51c0,7.36,5.96,13.32,13.32,13.32h7.56c7.36,0,13.32-5.96,13.32-13.32v-57.81c0-7.36-5.96-13.33-13.32-13.33h-7.56c-7.36,0-13.32-5.97-13.32-13.33v-1.5c0-7.36,5.96-13.32,13.32-13.32Zm-13.32,42.98c0,7.36-5.97,13.32-13.33,13.32h-75.96c-7.36,0-13.33-5.96-13.33-13.32v-1.5c0-7.36,5.97-13.33,13.33-13.33h75.96c7.36,0,13.33,5.97,13.33,13.33v1.5Z"/>
    <path class="cls-1" d="m171.03,98.54c0,3.89-1.58,7.4-4.13,9.95-2.55,2.54-6.07,4.12-9.95,4.12h-6.05c-3.89,0-7.41,1.58-9.96,4.12-2.55,2.55-4.12,6.07-4.12,9.96s-1.57,7.4-4.12,9.95-6.07,4.13-9.96,4.13H48.28c-7.77,0-14.08-6.31-14.08-14.08s-6.3-14.08-14.07-14.08h-6.06c-7.77,0-14.07-6.3-14.07-14.07v-56.31c0-3.89,1.57-7.41,4.12-9.96,2.55-2.54,6.07-4.12,9.95-4.12h6.06c3.88,0,7.4-1.58,9.95-4.12,2.55-2.55,4.12-6.06,4.12-9.95s1.58-7.41,4.13-9.96C40.87,1.57,44.39,0,48.28,0h74.46c7.78,0,14.08,6.3,14.08,14.08s6.3,14.07,14.08,14.07h6.05c7.77,0,14.08,6.3,14.08,14.08,0,3.88-1.58,7.4-4.13,9.95-2.55,2.55-6.07,4.13-9.95,4.13h-6.05c-7.78,0-14.08-6.31-14.08-14.08s-6.3-14.08-14.08-14.08H48.28c-3.89,0-7.41,1.58-9.95,4.12-2.55,2.55-4.13,6.07-4.13,9.96v56.31c0,7.77,6.31,14.07,14.08,14.07h74.46c3.89,0,7.41-1.58,9.96-4.12,2.55-2.55,4.12-6.06,4.12-9.95s1.57-7.41,4.12-9.96,6.07-4.12,9.96-4.12h6.05c7.77,0,14.08,6.3,14.08,14.08Z"/>
    <path class="cls-1" d="m502.83,42.23v84.46c0,3.88-1.58,7.4-4.12,9.95-2.55,2.55-6.06,4.13-9.95,4.13h-6.06c-7.77,0-14.07-6.31-14.07-14.08V42.23c0-3.89,1.58-7.41,4.12-9.96,2.55-2.54,6.06-4.12,9.95-4.12-7.77,0-14.07-6.3-14.07-14.07,0-3.89,1.58-7.41,4.12-9.96C475.3,1.57,478.81,0,482.7,0h6.06c7.77,0,14.07,6.3,14.07,14.08,0,3.89-1.58,7.4-4.12,9.95-2.55,2.54-6.06,4.12-9.95,4.12,7.77,0,14.07,6.3,14.07,14.08Z"/>
    <path class="cls-1" d="m685.83,98.54v28.15c0,3.88-1.58,7.4-4.13,9.95-2.55,2.55-6.07,4.13-9.95,4.13h-6.05c-7.78,0-14.08-6.31-14.08-14.08v-28.15c0-7.78-6.3-14.08-14.08-14.08h-6.05c-7.77,0-14.08-6.3-14.08-14.08,0-3.89,1.58-7.4,4.13-9.95,2.55-2.54,6.07-4.12,9.95-4.12h6.05c3.89,0,7.41-1.58,9.96-4.13,2.55-2.55,4.12-6.07,4.12-9.95,0-7.78-6.3-14.08-14.08-14.08h-74.46c-3.89,0-7.41,1.58-9.95,4.12-2.55,2.55-4.13,6.07-4.13,9.96,0,7.77,6.31,14.08,14.08,14.08h40.26c7.77,0,14.07,6.3,14.07,14.07,0,3.89-1.58,7.41-4.12,9.96-2.55,2.55-6.06,4.12-9.95,4.12h-40.26c-3.89,0-7.41,1.57-9.95,4.12-2.55,2.55-4.13,6.07-4.13,9.96v28.15c0,3.88-1.57,7.4-4.12,9.95-2.55,2.55-6.07,4.13-9.95,4.13h-6.06c-7.77,0-14.07-6.31-14.07-14.08V14.08c0-3.89,1.57-7.41,4.12-9.96C521.47,1.57,524.99,0,528.87,0h108.67c7.78,0,14.08,6.3,14.08,14.08s6.3,14.07,14.08,14.07h6.05c7.77,0,14.08,6.3,14.08,14.08,0,3.88-1.58,7.4-4.13,9.95s-6.07,4.13-9.95,4.13h-6.05c-3.89,0-7.41,1.58-9.96,4.12-2.55,2.55-4.12,6.06-4.12,9.95,0,7.78,6.3,14.08,14.08,14.08h6.05c7.77,0,14.08,6.3,14.08,14.08Z"/>
    <path class="cls-1" d="m848.77,28.15h-6.05c-7.78,0-14.08-6.3-14.08-14.07S822.34,0,814.56,0h-74.46c-3.88,0-7.4,1.57-9.95,4.12-2.55,2.55-4.13,6.07-4.13,9.96s-1.58,7.4-4.12,9.95c-2.55,2.54-6.06,4.12-9.95,4.12h-6.06c-3.89,0-7.4,1.58-9.95,4.12-2.54,2.55-4.12,6.07-4.12,9.96v56.31c0,7.77,6.3,14.07,14.07,14.07h6.06c7.77,0,14.07,6.3,14.07,14.08s6.31,14.08,14.08,14.08h74.46c3.89,0,7.41-1.58,9.96-4.13,2.54-2.55,4.12-6.07,4.12-9.95s1.58-7.41,4.12-9.96c2.55-2.54,6.07-4.12,9.96-4.12h6.05c3.89,0,7.41-1.58,9.95-4.12,2.55-2.55,4.13-6.06,4.13-9.95v-56.31c0-7.78-6.31-14.08-14.08-14.08Zm-108.67,84.46c-7.77,0-14.08-6.3-14.08-14.07v-56.31c0-3.89,1.58-7.41,4.13-9.96,2.55-2.54,6.07-4.12,9.95-4.12h74.46c7.78,0,14.08,6.3,14.08,14.08v56.31c0,3.89-1.58,7.4-4.12,9.95-2.55,2.54-6.07,4.12-9.96,4.12h-74.46Z"/>
    <path class="cls-1" d="m279.64,98.54c0,3.89-1.57,7.4-4.12,9.95-2.55,2.54-6.07,4.12-9.95,4.12h-6.05c-3.89,0-7.41,1.58-9.96,4.12-2.55,2.55-4.12,6.07-4.12,9.96s-1.57,7.4-4.12,9.95c-2.55,2.55-6.07,4.13-9.96,4.13h-40.26c-7.77,0-14.07-6.31-14.07-14.08V14.08c0-3.89,1.58-7.41,4.12-9.96C183.7,1.57,187.21,0,191.1,0h6.06c7.77,0,14.07,6.3,14.07,14.08v84.46c0,7.77,6.31,14.07,14.08,14.07h6.05c3.89,0,7.41-1.58,9.96-4.12,2.55-2.55,4.12-6.06,4.12-9.95s1.57-7.41,4.12-9.96c2.55-2.55,6.07-4.12,9.96-4.12h6.05c7.77,0,14.07,6.3,14.07,14.08Z"/>
  </g>
</svg>