<?xml version="1.0" encoding="UTF-8"?>
<svg id="Capa_2" data-name="Capa 2" xmlns="http://www.w3.org/2000/svg" viewBox="0 0 872.19 268.88">
  <defs>
    <style>
      .cls-1, .cls-2 {
        stroke-width: 0px;
      }

      .cls-3 {
        opacity: .91;
      }

      .cls-2 {
        fill: #8983dd;
      }
    </style>
  </defs>
  <g id="Capa_1-2" data-name="Capa 1">
    <g>
      <path class="cls-2" d="m180.5,98.6c0,3.89-1.58,7.4-4.13,9.95-2.55,2.54-6.07,4.12-9.95,4.12h-6.05c-3.89,0-7.41,1.58-9.96,4.12-2.55,2.55-4.12,6.07-4.12,9.96s-1.57,7.4-4.12,9.95c-2.55,2.55-6.07,4.13-9.96,4.13H57.75c-7.77,0-14.08-6.31-14.08-14.08s-6.3-14.08-14.07-14.08h-6.06c-7.77,0-14.07-6.3-14.07-14.07v-56.31c0-3.89,1.57-7.41,4.12-9.96,2.55-2.54,6.07-4.12,9.95-4.12h6.06c3.88,0,7.4-1.58,9.95-4.12,2.55-2.55,4.12-6.06,4.12-9.95s1.58-7.41,4.13-9.96C50.34,1.63,53.86.06,57.75.06h74.46c7.78,0,14.08,6.3,14.08,14.08s6.3,14.07,14.08,14.07h6.05c7.77,0,14.08,6.3,14.08,14.08,0,3.88-1.58,7.4-4.13,9.95-2.55,2.55-6.07,4.13-9.95,4.13h-6.05c-7.78,0-14.08-6.31-14.08-14.08s-6.3-14.08-14.08-14.08H57.75c-3.89,0-7.41,1.58-9.95,4.12-2.55,2.55-4.13,6.07-4.13,9.96v56.31c0,7.77,6.31,14.07,14.08,14.07h74.46c3.89,0,7.41-1.58,9.96-4.12,2.55-2.55,4.12-6.06,4.12-9.95s1.57-7.41,4.12-9.96c2.55-2.55,6.07-4.12,9.96-4.12h6.05c7.77,0,14.08,6.3,14.08,14.08Z"/>
      <path class="cls-2" d="m289.02,98.6c0,3.89-1.57,7.4-4.12,9.95-2.55,2.54-6.07,4.12-9.95,4.12h-6.05c-3.89,0-7.41,1.58-9.96,4.12-2.55,2.55-4.12,6.07-4.12,9.96s-1.57,7.4-4.12,9.95c-2.55,2.55-6.07,4.13-9.96,4.13h-40.26c-7.77,0-14.07-6.31-14.07-14.08V14.14c0-3.89,1.58-7.41,4.12-9.96,2.55-2.55,6.06-4.12,9.95-4.12h6.06c7.77,0,14.07,6.3,14.07,14.08v84.46c0,7.77,6.31,14.07,14.08,14.07h6.05c3.89,0,7.41-1.58,9.96-4.12,2.55-2.55,4.12-6.06,4.12-9.95s1.57-7.41,4.12-9.96c2.55-2.55,6.07-4.12,9.96-4.12h6.05c7.77,0,14.07,6.3,14.07,14.08Z"/>
      <path class="cls-2" d="m451.94,28.15h-6.05c-7.78,0-14.08-6.3-14.08-14.07s-6.3-14.08-14.08-14.08h-74.46c-3.89,0-7.41,1.57-9.95,4.12-2.55,2.55-4.13,6.07-4.13,9.96s-1.57,7.4-4.12,9.95c-2.55,2.54-6.07,4.12-9.95,4.12h-6.06c-3.88,0-7.4,1.58-9.95,4.12-2.55,2.55-4.12,6.07-4.12,9.96v84.46c0,7.77,6.3,14.08,14.07,14.08h6.06c3.88,0,7.4-1.58,9.95-4.13s4.12-6.07,4.12-9.95v-28.15c0-3.89,1.58-7.41,4.13-9.96,2.54-2.55,6.06-4.12,9.95-4.12h74.46c7.78,0,14.08,6.3,14.08,14.08v28.15c0,7.77,6.3,14.08,14.08,14.08h6.05c3.88,0,7.4-1.58,9.95-4.13,2.55-2.55,4.13-6.07,4.13-9.95V42.23c0-7.78-6.31-14.08-14.08-14.08Zm-24.25,24.03c-2.55,2.55-6.07,4.13-9.96,4.13h-74.46c-7.77,0-14.08-6.31-14.08-14.08,0-3.89,1.58-7.41,4.13-9.96,2.54-2.54,6.06-4.12,9.95-4.12h74.46c7.78,0,14.08,6.3,14.08,14.08,0,3.88-1.57,7.4-4.12,9.95Z"/>
      <path class="cls-2" d="m512.17,42.29v84.46c0,3.88-1.58,7.4-4.12,9.95-2.55,2.55-6.06,4.13-9.95,4.13h-6.06c-7.77,0-14.07-6.31-14.07-14.08V42.29c0-3.89,1.58-7.41,4.12-9.96,2.55-2.54,6.06-4.12,9.95-4.12-7.77,0-14.07-6.3-14.07-14.07,0-3.89,1.58-7.41,4.12-9.96,2.55-2.55,6.06-4.12,9.95-4.12h6.06c7.77,0,14.07,6.3,14.07,14.08,0,3.89-1.58,7.4-4.12,9.95-2.55,2.54-6.06,4.12-9.95,4.12,7.77,0,14.07,6.3,14.07,14.08Z"/>
      <path class="cls-2" d="m695.17,98.6v28.15c0,3.88-1.58,7.4-4.13,9.95-2.55,2.55-6.07,4.13-9.95,4.13h-6.05c-7.78,0-14.08-6.31-14.08-14.08v-28.15c0-7.78-6.3-14.08-14.08-14.08h-6.05c-7.77,0-14.08-6.3-14.08-14.08,0-3.89,1.58-7.4,4.13-9.95,2.55-2.54,6.07-4.12,9.95-4.12h6.05c3.89,0,7.41-1.58,9.96-4.13,2.55-2.55,4.12-6.07,4.12-9.95,0-7.78-6.3-14.08-14.08-14.08h-74.46c-3.89,0-7.41,1.58-9.95,4.12-2.55,2.55-4.13,6.07-4.13,9.96,0,7.77,6.31,14.08,14.08,14.08h40.26c7.77,0,14.07,6.3,14.07,14.07,0,3.89-1.58,7.41-4.12,9.96-2.55,2.55-6.06,4.12-9.95,4.12h-40.26c-3.89,0-7.41,1.57-9.95,4.12-2.55,2.55-4.13,6.07-4.13,9.96v28.15c0,3.88-1.57,7.4-4.12,9.95-2.55,2.55-6.07,4.13-9.95,4.13h-6.06c-7.77,0-14.07-6.31-14.07-14.08V14.14c0-3.89,1.57-7.41,4.12-9.96,2.55-2.55,6.07-4.12,9.95-4.12h108.67c7.78,0,14.08,6.3,14.08,14.08s6.3,14.07,14.08,14.07h6.05c7.77,0,14.08,6.3,14.08,14.08,0,3.88-1.58,7.4-4.13,9.95s-6.07,4.13-9.95,4.13h-6.05c-3.89,0-7.41,1.58-9.96,4.12-2.55,2.55-4.12,6.06-4.12,9.95,0,7.78,6.3,14.08,14.08,14.08h6.05c7.77,0,14.08,6.3,14.08,14.08Z"/>
      <path class="cls-2" d="m858.11,28.21h-6.05c-7.78,0-14.08-6.3-14.08-14.07S831.68.06,823.9.06h-74.46c-3.88,0-7.4,1.57-9.95,4.12-2.55,2.55-4.13,6.07-4.13,9.96s-1.58,7.4-4.12,9.95c-2.55,2.54-6.06,4.12-9.95,4.12h-6.06c-3.89,0-7.4,1.58-9.95,4.12-2.54,2.55-4.12,6.07-4.12,9.96v56.31c0,7.77,6.3,14.07,14.07,14.07h6.06c7.77,0,14.07,6.3,14.07,14.08s6.31,14.08,14.08,14.08h74.46c3.89,0,7.41-1.58,9.96-4.13,2.54-2.55,4.12-6.07,4.12-9.95s1.58-7.41,4.12-9.96c2.55-2.54,6.07-4.12,9.96-4.12h6.05c3.89,0,7.41-1.58,9.95-4.12,2.55-2.55,4.13-6.06,4.13-9.95v-56.31c0-7.78-6.31-14.08-14.08-14.08Zm-108.67,84.46c-7.77,0-14.08-6.3-14.08-14.07v-56.31c0-3.89,1.58-7.41,4.13-9.96,2.55-2.54,6.07-4.12,9.95-4.12h74.46c7.78,0,14.08,6.3,14.08,14.08v56.31c0,3.89-1.58,7.4-4.12,9.95-2.55,2.54-6.07,4.12-9.96,4.12h-74.46Z"/>
    </g>
    <g class="cls-3">
      <path class="cls-1" d="m81.62,159.26l-.5,4.25-50.62,81H0l55.5-85.25h26.12Zm36.88,68.75H28.12v-17.62h90.38v17.62Zm-4.38,16.5l-50.62-81-.25-4.25h26.12l55.5,85.25h-30.75Z"/>
      <path class="cls-1" d="m143.75,212.51c0-7.75,1.88-14.08,5.62-19,3.75-4.92,9.62-8.54,17.62-10.88,8-2.33,18.29-3.5,30.88-3.5,8,0,15.81.46,23.44,1.38,7.62.92,14.31,2.08,20.06,3.5l-4.75,18.88c-4.58-.92-10.27-1.79-17.06-2.62-6.79-.83-15.19-1.25-25.19-1.25-6.58,0-11.88.4-15.88,1.19-4,.79-6.86,2.17-8.56,4.12-1.71,1.96-2.56,4.69-2.56,8.19s.85,6.23,2.56,8.19c1.71,1.96,4.56,3.33,8.56,4.12,4,.79,9.29,1.19,15.88,1.19,10,0,18.39-.42,25.19-1.25,6.79-.83,12.48-1.71,17.06-2.62l4.75,18.88c-5.75,1.42-12.4,2.58-19.94,3.5-7.54.92-15.4,1.38-23.56,1.38-12.58,0-22.88-1.17-30.88-3.5s-13.88-5.98-17.62-10.94c-3.75-4.96-5.62-11.27-5.62-18.94Z"/>
      <path class="cls-1" d="m349.62,183.63l-10.12,18c-3.83-.5-8.42-.98-13.75-1.44-5.33-.46-10.88-.85-16.62-1.19-5.75-.33-11.21-.5-16.38-.5s-9.02.48-12.31,1.44c-3.29.96-5.77,2.44-7.44,4.44-1.67,2-2.5,4.67-2.5,8,0,5.08,1.42,8.67,4.25,10.75,2.83,2.08,7.67,3.12,14.5,3.12,5.58,0,11.56-.58,17.94-1.75,6.38-1.17,13.02-2.79,19.94-4.88,6.92-2.08,13.96-4.46,21.12-7.12v12.88c-3.75,2.17-7.98,4.44-12.69,6.81-4.71,2.38-9.79,4.58-15.25,6.62-5.46,2.04-11.19,3.71-17.19,5s-12.17,1.94-18.5,1.94c-7.5,0-14.11-1.06-19.81-3.19-5.71-2.12-10.12-5.58-13.25-10.38-3.12-4.79-4.69-11.1-4.69-18.94,0-8.58,2.02-15.31,6.06-20.19,4.04-4.88,9.69-8.35,16.94-10.44,7.25-2.08,15.67-3.12,25.25-3.12,11,0,21.06.44,30.19,1.31s17.23,1.81,24.31,2.81Zm-23.62,1.88l23.62-1.75v60.75h-20.75l-2.88-14.38v-44.62Z"/>
      <path class="cls-1" d="m450.75,184.88l-.12,17.25c-3.83-.58-8.38-1.14-13.62-1.69-5.25-.54-10.69-1-16.31-1.38s-10.94-.56-15.94-.56-8.71.48-11.88,1.44c-3.17.96-5.54,2.48-7.12,4.56-1.58,2.08-2.38,4.88-2.38,8.38,0,4.83,1.5,8.27,4.5,10.31,3,2.04,8.04,3.06,15.12,3.06,5.58,0,11.52-.56,17.81-1.69,6.29-1.12,12.83-2.71,19.62-4.75,6.79-2.04,13.69-4.35,20.69-6.94v12c-3.67,2-7.79,4.21-12.38,6.62-4.58,2.42-9.54,4.71-14.88,6.88-5.33,2.17-10.9,3.94-16.69,5.31-5.79,1.38-11.77,2.06-17.94,2.06-8.25,0-15.31-1.02-21.19-3.06s-10.4-5.46-13.56-10.25c-3.17-4.79-4.75-11.19-4.75-19.19,0-8.42,1.94-15.08,5.81-20,3.88-4.92,9.31-8.44,16.31-10.56s15.12-3.19,24.38-3.19,17.1.61,24.56,1.81c7.46,1.21,14.1,2.4,19.94,3.56Zm-11.88-34.12h23.62v93.75h-20.75l-2.88-15.25v-78.5Z"/>
      <path class="cls-1" d="m527.62,227.63c6.33,0,12.08-.19,17.25-.56,5.17-.38,9.69-.83,13.56-1.38,3.88-.54,7.06-.98,9.56-1.31l4.75,17c-3.92.92-8.52,1.75-13.81,2.5-5.29.75-10.83,1.33-16.62,1.75-5.79.42-11.4.62-16.81.62-12.08,0-21.96-1.17-29.62-3.5-7.67-2.33-13.31-5.98-16.94-10.94-3.62-4.96-5.44-11.35-5.44-19.19s1.94-14.33,5.81-19.25c3.88-4.92,9.56-8.52,17.06-10.81,7.5-2.29,16.71-3.44,27.62-3.44,7.58,0,14.46.52,20.62,1.56,6.17,1.04,11.46,2.69,15.88,4.94,4.42,2.25,7.81,5.21,10.19,8.88,2.38,3.67,3.56,8.08,3.56,13.25,0,1-.04,2.21-.12,3.62-.08,1.42-.17,2.73-.25,3.94-.08,1.21-.17,2.11-.25,2.69h-87.38v-12.25h67.62l-2.62,4.38c0-3.58-.71-6.5-2.12-8.75-1.42-2.25-4.12-3.89-8.12-4.94-4-1.04-9.96-1.56-17.88-1.56-7,0-12.48.52-16.44,1.56-3.96,1.04-6.71,2.77-8.25,5.19-1.54,2.42-2.31,5.75-2.31,10,0,3.33.46,6.06,1.38,8.19.92,2.12,2.54,3.75,4.88,4.88,2.33,1.12,5.54,1.9,9.62,2.31,4.08.42,9.29.62,15.62.62Z"/>
      <path class="cls-1" d="m585.25,244.51v-63.62h20.75l2.88,15.25v48.38h-23.62Zm93.75-35.38v35.38h-23.62v-31.38c0-3.25-.69-5.94-2.06-8.06s-3.44-3.71-6.19-4.75c-2.75-1.04-6.21-1.56-10.38-1.56-4.5,0-9.21.54-14.12,1.62-4.92,1.08-10.25,2.54-16,4.38-5.75,1.83-12.21,3.96-19.38,6.38v-13.25c3.5-1.92,7.44-3.96,11.81-6.12,4.38-2.17,9-4.23,13.88-6.19,4.88-1.96,9.98-3.52,15.31-4.69,5.33-1.17,10.71-1.75,16.12-1.75,7.5,0,13.81,1.02,18.94,3.06,5.12,2.04,9.02,5.25,11.69,9.62,2.67,4.38,4,10.15,4,17.31Zm70.12,0v35.38h-23.62v-31.38c0-3.25-.69-5.94-2.06-8.06s-3.44-3.71-6.19-4.75c-2.75-1.04-6.21-1.56-10.38-1.56-4.58,0-9.4.52-14.44,1.56-5.04,1.04-10.5,2.48-16.38,4.31-5.88,1.83-12.44,4-19.69,6.5v-13.25c3.58-2,7.58-4.08,12-6.25,4.42-2.17,9.12-4.21,14.12-6.12,5-1.92,10.21-3.46,15.62-4.62,5.42-1.17,10.92-1.75,16.5-1.75,7.42,0,13.69,1.02,18.81,3.06,5.12,2.04,9.02,5.25,11.69,9.62,2.67,4.38,4,10.15,4,17.31Z"/>
      <path class="cls-1" d="m759.62,207.26v-26.5h23.5v22.88c0,3.42.69,6.19,2.06,8.31s3.71,3.67,7,4.62c3.29.96,7.85,1.44,13.69,1.44,5.5,0,11.23-.31,17.19-.94,5.96-.62,12.1-1.54,18.44-2.75,6.33-1.21,12.83-2.69,19.5-4.44v13.25c-3.25,1.42-7.11,2.96-11.56,4.62-4.46,1.67-9.36,3.25-14.69,4.75-5.33,1.5-10.94,2.69-16.81,3.56s-11.77,1.31-17.69,1.31c-9.92,0-17.83-1.04-23.75-3.12-5.92-2.08-10.21-5.35-12.88-9.81-2.67-4.46-4-10.19-4-17.19Zm103.62-26.5v49.62c0,9.67-1.86,17.31-5.56,22.94-3.71,5.62-9.4,9.62-17.06,12-7.67,2.38-17.5,3.56-29.5,3.56-5.33,0-10.81-.25-16.44-.75s-11.02-1.19-16.19-2.06c-5.17-.88-9.88-1.9-14.12-3.06l4.12-18c7.42,1.83,14.77,3.23,22.06,4.19,7.29.96,14.69,1.44,22.19,1.44s12.85-.62,17.06-1.88c4.21-1.25,7.17-3.27,8.88-6.06,1.71-2.79,2.39-6.52,2.06-11.19l-1.12-2.88v-47.88h23.62Z"/>
    </g>
  </g>
</svg>