<?xml version="1.0" encoding="UTF-8"?>
<svg id="Capa_2" data-name="Capa 2" xmlns="http://www.w3.org/2000/svg" viewBox="0 0 872.19 268.88">
  <defs>
    <style>
      .cls-1, .cls-2 {
        stroke-width: 0px;
      }

      .cls-2 {
        fill: #01c38e;
      }
    </style>
  </defs>
  <g id="Capa_1-2" data-name="Capa 1">
    <g>
      <g>
        <path class="cls-2" d="m180.5,98.6c0,3.89-1.58,7.4-4.13,9.95-2.55,2.54-6.07,4.12-9.95,4.12h-6.05c-3.89,0-7.41,1.58-9.96,4.12-2.55,2.55-4.12,6.07-4.12,9.96s-1.57,7.4-4.12,9.95c-2.55,2.55-6.07,4.13-9.96,4.13H57.75c-7.77,0-14.08-6.31-14.08-14.08s-6.3-14.08-14.07-14.08h-6.06c-7.77,0-14.07-6.3-14.07-14.07v-56.31c0-3.89,1.57-7.41,4.12-9.96,2.55-2.54,6.07-4.12,9.95-4.12h6.06c3.88,0,7.4-1.58,9.95-4.12,2.55-2.55,4.12-6.06,4.12-9.95s1.58-7.41,4.13-9.96C50.34,1.63,53.86.06,57.75.06h74.46c7.78,0,14.08,6.3,14.08,14.08s6.3,14.07,14.08,14.07h6.05c7.77,0,14.08,6.3,14.08,14.08,0,3.88-1.58,7.4-4.13,9.95-2.55,2.55-6.07,4.13-9.95,4.13h-6.05c-7.78,0-14.08-6.31-14.08-14.08s-6.3-14.08-14.08-14.08H57.75c-3.89,0-7.41,1.58-9.95,4.12-2.55,2.55-4.13,6.07-4.13,9.96v56.31c0,7.77,6.31,14.07,14.08,14.07h74.46c3.89,0,7.41-1.58,9.96-4.12,2.55-2.55,4.12-6.06,4.12-9.95s1.57-7.41,4.12-9.96c2.55-2.55,6.07-4.12,9.96-4.12h6.05c7.77,0,14.08,6.3,14.08,14.08Z"/>
        <path class="cls-2" d="m289.02,98.6c0,3.89-1.57,7.4-4.12,9.95-2.55,2.54-6.07,4.12-9.95,4.12h-6.05c-3.89,0-7.41,1.58-9.96,4.12-2.55,2.55-4.12,6.07-4.12,9.96s-1.57,7.4-4.12,9.95c-2.55,2.55-6.07,4.13-9.96,4.13h-40.26c-7.77,0-14.07-6.31-14.07-14.08V14.14c0-3.89,1.58-7.41,4.12-9.96,2.55-2.55,6.06-4.12,9.95-4.12h6.06c7.77,0,14.07,6.3,14.07,14.08v84.46c0,7.77,6.31,14.07,14.08,14.07h6.05c3.89,0,7.41-1.58,9.96-4.12,2.55-2.55,4.12-6.06,4.12-9.95s1.57-7.41,4.12-9.96c2.55-2.55,6.07-4.12,9.96-4.12h6.05c7.77,0,14.07,6.3,14.07,14.08Z"/>
        <path class="cls-2" d="m451.94,28.15h-6.05c-7.78,0-14.08-6.3-14.08-14.07s-6.3-14.08-14.08-14.08h-74.46c-3.89,0-7.41,1.57-9.95,4.12-2.55,2.55-4.13,6.07-4.13,9.96s-1.57,7.4-4.12,9.95c-2.55,2.54-6.07,4.12-9.95,4.12h-6.06c-3.88,0-7.4,1.58-9.95,4.12-2.55,2.55-4.12,6.07-4.12,9.96v84.46c0,7.77,6.3,14.08,14.07,14.08h6.06c3.88,0,7.4-1.58,9.95-4.13s4.12-6.07,4.12-9.95v-28.15c0-3.89,1.58-7.41,4.13-9.96,2.54-2.55,6.06-4.12,9.95-4.12h74.46c7.78,0,14.08,6.3,14.08,14.08v28.15c0,7.77,6.3,14.08,14.08,14.08h6.05c3.88,0,7.4-1.58,9.95-4.13,2.55-2.55,4.13-6.07,4.13-9.95V42.23c0-7.78-6.31-14.08-14.08-14.08Zm-24.25,24.03c-2.55,2.55-6.07,4.13-9.96,4.13h-74.46c-7.77,0-14.08-6.31-14.08-14.08,0-3.89,1.58-7.41,4.13-9.96,2.54-2.54,6.06-4.12,9.95-4.12h74.46c7.78,0,14.08,6.3,14.08,14.08,0,3.88-1.57,7.4-4.12,9.95Z"/>
        <path class="cls-2" d="m512.17,42.29v84.46c0,3.88-1.58,7.4-4.12,9.95-2.55,2.55-6.06,4.13-9.95,4.13h-6.06c-7.77,0-14.07-6.31-14.07-14.08V42.29c0-3.89,1.58-7.41,4.12-9.96,2.55-2.54,6.06-4.12,9.95-4.12-7.77,0-14.07-6.3-14.07-14.07,0-3.89,1.58-7.41,4.12-9.96,2.55-2.55,6.06-4.12,9.95-4.12h6.06c7.77,0,14.07,6.3,14.07,14.08,0,3.89-1.58,7.4-4.12,9.95-2.55,2.54-6.06,4.12-9.95,4.12,7.77,0,14.07,6.3,14.07,14.08Z"/>
        <path class="cls-2" d="m695.17,98.6v28.15c0,3.88-1.58,7.4-4.13,9.95-2.55,2.55-6.07,4.13-9.95,4.13h-6.05c-7.78,0-14.08-6.31-14.08-14.08v-28.15c0-7.78-6.3-14.08-14.08-14.08h-6.05c-7.77,0-14.08-6.3-14.08-14.08,0-3.89,1.58-7.4,4.13-9.95,2.55-2.54,6.07-4.12,9.95-4.12h6.05c3.89,0,7.41-1.58,9.96-4.13,2.55-2.55,4.12-6.07,4.12-9.95,0-7.78-6.3-14.08-14.08-14.08h-74.46c-3.89,0-7.41,1.58-9.95,4.12-2.55,2.55-4.13,6.07-4.13,9.96,0,7.77,6.31,14.08,14.08,14.08h40.26c7.77,0,14.07,6.3,14.07,14.07,0,3.89-1.58,7.41-4.12,9.96-2.55,2.55-6.06,4.12-9.95,4.12h-40.26c-3.89,0-7.41,1.57-9.95,4.12-2.55,2.55-4.13,6.07-4.13,9.96v28.15c0,3.88-1.57,7.4-4.12,9.95-2.55,2.55-6.07,4.13-9.95,4.13h-6.06c-7.77,0-14.07-6.31-14.07-14.08V14.14c0-3.89,1.57-7.41,4.12-9.96,2.55-2.55,6.07-4.12,9.95-4.12h108.67c7.78,0,14.08,6.3,14.08,14.08s6.3,14.07,14.08,14.07h6.05c7.77,0,14.08,6.3,14.08,14.08,0,3.88-1.58,7.4-4.13,9.95s-6.07,4.13-9.95,4.13h-6.05c-3.89,0-7.41,1.58-9.96,4.12-2.55,2.55-4.12,6.06-4.12,9.95,0,7.78,6.3,14.08,14.08,14.08h6.05c7.77,0,14.08,6.3,14.08,14.08Z"/>
        <path class="cls-2" d="m858.11,28.21h-6.05c-7.78,0-14.08-6.3-14.08-14.07S831.68.06,823.9.06h-74.46c-3.88,0-7.4,1.57-9.95,4.12-2.55,2.55-4.13,6.07-4.13,9.96s-1.58,7.4-4.12,9.95c-2.55,2.54-6.06,4.12-9.95,4.12h-6.06c-3.89,0-7.4,1.58-9.95,4.12-2.54,2.55-4.12,6.07-4.12,9.96v56.31c0,7.77,6.3,14.07,14.07,14.07h6.06c7.77,0,14.07,6.3,14.07,14.08s6.31,14.08,14.08,14.08h74.46c3.89,0,7.41-1.58,9.96-4.13,2.54-2.55,4.12-6.07,4.12-9.95s1.58-7.41,4.12-9.96c2.55-2.54,6.07-4.12,9.96-4.12h6.05c3.89,0,7.41-1.58,9.95-4.12,2.55-2.55,4.13-6.06,4.13-9.95v-56.31c0-7.78-6.31-14.08-14.08-14.08Zm-108.67,84.46c-7.77,0-14.08-6.3-14.08-14.07v-56.31c0-3.89,1.58-7.41,4.13-9.96,2.55-2.54,6.07-4.12,9.95-4.12h74.46c7.78,0,14.08,6.3,14.08,14.08v56.31c0,3.89-1.58,7.4-4.12,9.95-2.55,2.54-6.07,4.12-9.96,4.12h-74.46Z"/>
      </g>
      <g>
        <path class="cls-1" d="m81.62,159.26h-26.12L0,244.51h30.5l10.31-16.5h63l10.31,16.5h30.75l-55.5-85.25h-7.75Zm-29.8,51.12l20.48-32.78,20.48,32.78h-40.97Z"/>
        <path class="cls-1" d="m178.5,200.19c4-.79,9.29-1.19,15.88-1.19,10,0,18.39.42,25.19,1.25,6.79.83,12.48,1.71,17.06,2.62l4.75-18.88c-5.75-1.42-12.44-2.58-20.06-3.5-7.62-.92-15.44-1.38-23.44-1.38-12.58,0-22.88,1.17-30.88,3.5-8,2.33-13.88,5.96-17.62,10.88-3.75,4.92-5.62,11.25-5.62,19s1.88,13.98,5.62,18.94c3.75,4.96,9.62,8.61,17.62,10.94s18.29,3.5,30.88,3.5c8.17,0,16.02-.46,23.56-1.38,7.54-.92,14.19-2.08,19.94-3.5l-4.75-18.88c-4.58.92-10.27,1.79-17.06,2.62-6.79.83-15.19,1.25-25.19,1.25-6.58,0-11.88-.39-15.88-1.19-4-.79-6.86-2.17-8.56-4.12-1.71-1.96-2.56-4.69-2.56-8.19s.85-6.23,2.56-8.19c1.71-1.96,4.56-3.33,8.56-4.12Z"/>
        <path class="cls-1" d="m325.31,180.82c-9.12-.88-19.19-1.31-30.19-1.31-9.58,0-18,1.04-25.25,3.12-7.25,2.08-12.9,5.56-16.94,10.44-4.04,4.88-6.06,11.61-6.06,20.19,0,7.83,1.56,14.15,4.69,18.94,3.12,4.79,7.54,8.25,13.25,10.38,5.71,2.12,12.31,3.19,19.81,3.19,6.33,0,12.5-.65,18.5-1.94s11.73-2.96,17.19-5c2.37-.89,4.65-1.81,6.87-2.76l1.69,8.44h20.75v-60.75h-.07s.07-.12.07-.12c-7.08-1-15.19-1.94-24.31-2.81Zm-18.12,43.69c-6.38,1.17-12.36,1.75-17.94,1.75-6.83,0-11.67-1.04-14.5-3.12-2.83-2.08-4.25-5.67-4.25-10.75,0-3.33.83-6,2.5-8,1.67-2,4.14-3.48,7.44-4.44,3.29-.96,7.39-1.44,12.31-1.44,5.17,0,10.62.17,16.38.5,5.75.33,11.29.73,16.62,1.19.08,0,.17.01.25.02v19.74c-6.51,1.92-12.79,3.45-18.81,4.55Z"/>
        <path class="cls-1" d="m438.88,182.67c-2.57-.45-5.26-.9-8.06-1.35-7.46-1.21-15.65-1.81-24.56-1.81s-17.38,1.06-24.38,3.19-12.44,5.65-16.31,10.56c-3.88,4.92-5.81,11.58-5.81,20s1.58,14.4,4.75,19.19c3.17,4.79,7.69,8.21,13.56,10.25s12.94,3.06,21.19,3.06c6.17,0,12.14-.69,17.94-2.06,5.79-1.38,11.35-3.14,16.69-5.31,2.14-.87,4.2-1.76,6.22-2.67l1.66,8.8h20.75v-93.75h-23.62v31.92Zm-18.06,41.9c-6.29,1.12-12.23,1.69-17.81,1.69-7.08,0-12.12-1.02-15.12-3.06-3-2.04-4.5-5.48-4.5-10.31,0-3.5.79-6.29,2.38-8.38,1.58-2.08,3.96-3.6,7.12-4.56,3.17-.96,7.12-1.44,11.88-1.44,5,0,10.31.19,15.94.56s11.06.83,16.31,1.38c.64.07,1.26.13,1.88.2v19.62c-6.23,1.82-12.26,3.26-18.06,4.3Z"/>
        <path class="cls-1" d="m560.5,185.63c-4.42-2.25-9.71-3.89-15.88-4.94-6.17-1.04-13.04-1.56-20.62-1.56-10.92,0-20.12,1.15-27.62,3.44-7.5,2.29-13.19,5.9-17.06,10.81-3.88,4.92-5.81,11.33-5.81,19.25s1.81,14.23,5.44,19.19c3.62,4.96,9.27,8.61,16.94,10.94,7.67,2.33,17.54,3.5,29.62,3.5,5.42,0,11.02-.21,16.81-.62,5.79-.42,11.33-1,16.62-1.75,5.29-.75,9.89-1.58,13.81-2.5l-4.75-17c-2.5.33-5.69.77-9.56,1.31-3.88.54-8.4,1-13.56,1.38-5.17.38-10.92.56-17.25.56s-11.54-.21-15.62-.62c-4.08-.42-7.29-1.19-9.62-2.31-2.33-1.12-3.96-2.75-4.88-4.88-.24-.56-.45-1.17-.63-1.81h76.75c.08-.58.17-1.48.25-2.69.08-1.21.17-2.52.25-3.94.08-1.42.12-2.62.12-3.62,0-5.17-1.19-9.58-3.56-13.25-2.38-3.67-5.77-6.62-10.19-8.88Zm-53.81,10.81c3.96-1.04,9.44-1.56,16.44-1.56,7.92,0,13.88.52,17.88,1.56,4,1.04,6.71,2.69,8.12,4.94.79,1.25,1.35,2.71,1.7,4.38h-54.07c.38-1.58.94-2.96,1.68-4.12,1.54-2.42,4.29-4.14,8.25-5.19Z"/>
        <path class="cls-1" d="m733.44,182.19c-5.12-2.04-11.4-3.06-18.81-3.06-5.58,0-11.08.58-16.5,1.75-5.42,1.17-10.62,2.71-15.62,4.62-3.21,1.23-6.28,2.52-9.25,3.85-2.53-3.13-5.83-5.53-9.93-7.16-5.12-2.04-11.44-3.06-18.94-3.06-5.42,0-10.79.58-16.12,1.75-5.33,1.17-10.44,2.73-15.31,4.69-1.91.77-3.77,1.56-5.61,2.36l-1.33-7.05h-20.75v63.62h23.62v-40.44c4.89-1.5,9.49-2.74,13.75-3.68,4.92-1.08,9.62-1.62,14.12-1.62,4.17,0,7.62.52,10.38,1.56,2.75,1.04,4.81,2.62,6.19,4.75s2.06,4.81,2.06,8.06v31.38h23.62v-35.38c0-1.86-.09-3.63-.27-5.3,4.86-1.45,9.45-2.63,13.71-3.51,5.04-1.04,9.85-1.56,14.44-1.56,4.17,0,7.62.52,10.38,1.56,2.75,1.04,4.81,2.62,6.19,4.75s2.06,4.81,2.06,8.06v31.38h23.62v-35.38c0-7.17-1.33-12.94-4-17.31-2.67-4.38-6.56-7.58-11.69-9.62Z"/>
        <path class="cls-1" d="m839.62,180.76v33.9c-5.67,1.04-11.2,1.85-16.56,2.41-5.96.62-11.69.94-17.19.94-5.83,0-10.4-.48-13.69-1.44-3.29-.96-5.62-2.5-7-4.62s-2.06-4.89-2.06-8.31v-22.88h-23.5v26.5c0,7,1.33,12.73,4,17.19,2.67,4.46,6.96,7.73,12.88,9.81,5.92,2.08,13.83,3.12,23.75,3.12,5.92,0,11.81-.44,17.69-1.31s11.48-2.06,16.81-3.56c1.97-.56,3.87-1.13,5.72-1.7l.28.7c.33,4.67-.36,8.4-2.06,11.19-1.71,2.79-4.67,4.81-8.88,6.06-4.21,1.25-9.9,1.88-17.06,1.88s-14.9-.48-22.19-1.44c-7.29-.96-14.65-2.36-22.06-4.19l-4.12,18c4.25,1.17,8.96,2.19,14.12,3.06,5.17.88,10.56,1.56,16.19,2.06s11.1.75,16.44.75c12,0,21.83-1.19,29.5-3.56,7.67-2.38,13.35-6.38,17.06-12,3.71-5.62,5.56-13.27,5.56-22.94v-49.62h-23.62Z"/>
      </g>
    </g>
  </g>
</svg>